<svg width="515" height="581" viewBox="0 0 515 581" fill="none" xmlns="http://www.w3.org/2000/svg">
<path d="M0.645604 472.199L0.645604 457.289L166.509 557.305C184.4 567.244 198.398 562.274 203.161 558.547L498.236 390.82C510.66 386.844 513.394 380.88 514.636 376.532L514.388 387.714C514.885 393.677 511.903 397.653 507.554 400.759C411.681 456.254 216.579 569.232 203.161 577.183C189.742 585.135 173.135 578.84 166.509 574.698C117.848 546.33 18.4123 488.35 9.96378 483.38C1.5153 478.411 0.231463 473.855 0.645604 472.199Z" fill="url(#paint0_linear_1_2877)"/>
<rect width="33.5454" height="4.06014" rx="2.03007" transform="matrix(-0.85077 -0.525538 0.0297448 -0.999558 107.472 536.232)" fill="#8161FF"/>
<rect width="6.21212" height="6.21212" rx="3.10606" transform="matrix(-0.85077 -0.525538 0.0297448 -0.999558 153.779 563.672)" fill="#8161FF"/>
<path d="M293.241 283.973L6.86221 449.215C-8.67154 457.911 9.96781 469.388 16.8011 473.441L170.861 563.517C176.825 567.989 197.574 567.244 202.544 563.517L503.83 389.577C523.212 378.147 512.527 365.764 503.83 361.002C460.967 335.532 366.916 282.109 348.529 274.655C330.141 267.2 304.008 277.761 293.241 283.973Z" fill="#F3E4FF"/>
<mask id="mask0_1_2877" style="mask-type:alpha" maskUnits="userSpaceOnUse" x="0" y="272" width="515" height="295">
<path d="M293.241 283.973L6.86221 449.215C-8.67154 457.911 9.96781 469.388 16.8011 473.441L170.861 563.517C176.825 567.989 197.574 567.244 202.544 563.517L503.83 389.577C523.212 378.147 512.527 365.764 503.83 361.002C460.967 335.532 366.916 282.109 348.529 274.655C330.141 267.2 304.008 277.761 293.241 283.973Z" fill="#F3E4FF"/>
</mask>
<g mask="url(#mask0_1_2877)">
<path d="M88.2364 535.562L88.2364 376.532L-3.70288 457.289L88.2364 535.562Z" fill="#B195FF" fill-opacity="0.4"/>
<path d="M175.827 580.911L175.827 340.502L207.509 319.38L211.858 586.501L175.827 580.911Z" fill="#B195FF" fill-opacity="0.4"/>
<path d="M372.751 275.896L372.751 479.653L406.297 479.653L403.812 290.805L372.751 275.896Z" fill="#B195FF" fill-opacity="0.4"/>
<path d="M443.57 297.638L439.842 452.941L477.736 472.82L480.842 324.35L443.57 297.638Z" fill="#B195FF" fill-opacity="0.4"/>
<path d="M52.7594 550.394L52.7594 391.363L-39.1799 472.121L52.7594 550.394Z" fill="#F2EEFF" fill-opacity="0.2"/>
<path d="M153.396 595.121L153.396 348.5L176.381 348.5L176.381 601.333L153.396 595.121Z" fill="#F2EEFF" fill-opacity="0.2"/>
<path d="M442.259 490.136L442.259 324.273L404.365 298.182L404.365 467.772L442.259 490.136Z" fill="#F2EEFF" fill-opacity="0.2"/>
</g>
<mask id="mask1_1_2877" style="mask-type:alpha" maskUnits="userSpaceOnUse" x="0" y="272" width="515" height="295">
<path d="M293.241 283.973L6.86221 449.215C-8.67154 457.911 9.96781 469.388 16.8011 473.441L170.861 563.517C176.825 567.989 197.574 567.244 202.544 563.517L503.83 389.577C523.212 378.147 512.527 365.764 503.83 361.002C460.967 335.532 366.916 282.109 348.529 274.655C330.141 267.2 304.008 277.761 293.241 283.973Z" fill="#F3E4FF"/>
</mask>
<g mask="url(#mask1_1_2877)">
<path fill-rule="evenodd" clip-rule="evenodd" d="M285.16 280.244L313.115 264.093L521.221 380.482L488.714 400.138L285.16 280.244ZM6.86221 449.214L27.9788 437.411L224.903 551.092L202.544 563.515C194.464 567.865 178.93 569.109 171.479 564.759L16.8011 473.44C9.96781 469.387 -8.67154 457.909 6.86221 449.214Z" fill="#B195FF"/>
</g>
<rect width="39.4413" height="4.29596" rx="2.14798" transform="matrix(0.866178 0.499736 0.865873 -0.500264 389.524 317.803)" fill="#8161FF"/>
<g filter="url(#filter0_dddddd_1_2877)">
<rect width="54.6666" height="18.6364" rx="9.31818" transform="matrix(0.869333 0.494226 -0.862679 0.505752 90.0249 484.623)" fill="#845BF7"/>
</g>
<path fill-rule="evenodd" clip-rule="evenodd" d="M389.818 197.016L277.652 197.016L277.652 253.957C277.637 254.182 277.637 254.407 277.652 254.632L277.652 371.988C277.637 372.213 277.637 372.438 277.652 372.663L277.652 372.819L277.665 372.819C277.869 374.923 279.379 376.979 282.19 378.547L323.421 401.546C329.413 404.889 339.047 404.747 344.938 401.229L385.472 377.022C388.574 375.169 390.02 372.749 389.818 370.385L389.818 253.224C389.843 252.934 389.843 252.644 389.818 252.354L389.818 197.016Z" fill="url(#paint1_linear_1_2877)"/>
<rect width="72.0606" height="72.0606" rx="10" transform="matrix(-0.858549 0.512731 0.873313 0.48716 333.293 161.515)" fill="#CA3DEC"/>
<path fill-rule="evenodd" clip-rule="evenodd" d="M245.51 267.371C251.401 263.852 261.035 263.71 267.027 267.053L308.258 290.053C310.795 291.468 312.273 293.281 312.686 295.168L312.788 295.168L312.788 295.839C312.813 296.129 312.813 296.419 312.788 296.709L312.788 413.87C312.99 416.234 311.544 418.654 308.441 420.507L267.907 444.714C262.016 448.232 252.383 448.374 246.39 445.031L205.159 422.031C202.349 420.464 200.839 418.408 200.635 416.304L200.622 416.304L200.622 416.148C200.607 415.923 200.607 415.698 200.622 415.473L200.622 298.117C200.607 297.892 200.607 297.667 200.622 297.442L200.622 295.789L201.004 295.787C201.615 294.257 202.938 292.795 204.976 291.578L245.51 267.371Z" fill="url(#paint2_linear_1_2877)"/>
<rect width="72.0606" height="72.0606" rx="10" transform="matrix(-0.858549 0.512731 0.873313 0.48716 256.263 258.424)" fill="#7554E9"/>
<path fill-rule="evenodd" clip-rule="evenodd" d="M170.963 360.552C176.854 357.034 186.488 356.892 192.48 360.235L233.711 383.235C236.934 385.032 238.447 387.472 238.241 389.89L238.241 458.597C238.443 460.961 236.997 463.381 233.895 465.234L193.361 489.441C187.47 492.959 177.836 493.101 171.844 489.759L130.613 466.759C127.802 465.191 126.292 463.135 126.088 461.031L126.075 461.031L126.075 460.875C126.061 460.65 126.061 460.425 126.075 460.2L126.075 391.299C126.06 391.074 126.06 390.849 126.075 390.623L126.075 390.213L126.119 390.213C126.409 388.242 127.844 386.304 130.429 384.76L170.963 360.552Z" fill="url(#paint3_linear_1_2877)"/>
<rect width="72.0606" height="72.0606" rx="10" transform="matrix(-0.858549 0.512731 0.873313 0.48716 181.718 352.848)" fill="#EBA4FF"/>
<path d="M173.274 390.121L161.471 381.424L186.32 364.03L209.305 370.863L173.274 390.121Z" fill="url(#paint4_linear_1_2877)"/>
<path d="M261.487 316.818L248.441 309.363L271.426 290.727L294.411 297.56L261.487 316.818Z" fill="url(#paint5_linear_1_2877)"/>
<path d="M344.726 200.025L331.68 190.708L315.532 200.03L319.88 218.667L344.726 200.025Z" fill="url(#paint6_linear_1_2877)"/>
<path d="M160.85 381.118L173.279 390.121L187.483 381.118L224.177 276.086L248.443 309.696L261.463 316.898L315.912 153.047L331.892 191.459L344.913 200.462L350.32 162.757L386.933 54.0168L375.688 54.0168L411.199 9.00279L398.178 5.0636e-07L362.668 45.6141L372.137 51.616L338.994 140.444L320.647 99.6309L307.627 91.2283L250.81 266.483L226.545 234.673L213.524 225.67L160.85 381.118Z" fill="#AEB0FD"/>
<path d="M189.259 381.718L173.274 390.123L226.545 234.673L261.464 280.887L320.648 99.6309L347.872 159.65L386.934 54.0168L375.689 54.0168L411.199 8.40262L411.199 54.0168L399.362 54.0168L344.729 200.653L320.648 142.244L261.464 316.82L226.545 269.484L189.259 381.718Z" fill="#EBE3FF"/>
<defs>
<filter id="filter0_dddddd_1_2877" x="31.823" y="440.5" width="147.85" height="124.689" filterUnits="userSpaceOnUse" color-interpolation-filters="sRGB">
<feFlood flood-opacity="0" result="BackgroundImageFix"/>
<feColorMatrix in="SourceAlpha" type="matrix" values="0 0 0 0 0 0 0 0 0 0 0 0 0 0 0 0 0 0 127 0" result="hardAlpha"/>
<feOffset/>
<feGaussianBlur stdDeviation="1.57407"/>
<feColorMatrix type="matrix" values="0 0 0 0 0.635294 0 0 0 0 0.176471 0 0 0 0 0.968627 0 0 0 0.1 0"/>
<feBlend mode="normal" in2="BackgroundImageFix" result="effect1_dropShadow_1_2877"/>
<feColorMatrix in="SourceAlpha" type="matrix" values="0 0 0 0 0 0 0 0 0 0 0 0 0 0 0 0 0 0 127 0" result="hardAlpha"/>
<feOffset/>
<feGaussianBlur stdDeviation="3.25926"/>
<feColorMatrix type="matrix" values="0 0 0 0 0.635294 0 0 0 0 0.176471 0 0 0 0 0.968627 0 0 0 0.1 0"/>
<feBlend mode="normal" in2="effect1_dropShadow_1_2877" result="effect2_dropShadow_1_2877"/>
<feColorMatrix in="SourceAlpha" type="matrix" values="0 0 0 0 0 0 0 0 0 0 0 0 0 0 0 0 0 0 127 0" result="hardAlpha"/>
<feOffset/>
<feGaussianBlur stdDeviation="6.5"/>
<feColorMatrix type="matrix" values="0 0 0 0 0.635294 0 0 0 0 0.176471 0 0 0 0 0.968627 0 0 0 0.1 0"/>
<feBlend mode="normal" in2="effect2_dropShadow_1_2877" result="effect3_dropShadow_1_2877"/>
<feColorMatrix in="SourceAlpha" type="matrix" values="0 0 0 0 0 0 0 0 0 0 0 0 0 0 0 0 0 0 127 0" result="hardAlpha"/>
<feOffset/>
<feGaussianBlur stdDeviation="12.7407"/>
<feColorMatrix type="matrix" values="0 0 0 0 0.635294 0 0 0 0 0.176471 0 0 0 0 0.968627 0 0 0 0.1 0"/>
<feBlend mode="normal" in2="effect3_dropShadow_1_2877" result="effect4_dropShadow_1_2877"/>
<feColorMatrix in="SourceAlpha" type="matrix" values="0 0 0 0 0 0 0 0 0 0 0 0 0 0 0 0 0 0 127 0" result="hardAlpha"/>
<feOffset/>
<feGaussianBlur stdDeviation="23.4259"/>
<feColorMatrix type="matrix" values="0 0 0 0 0.635294 0 0 0 0 0.176471 0 0 0 0 0.968627 0 0 0 0.1 0"/>
<feBlend mode="normal" in2="effect4_dropShadow_1_2877" result="effect5_dropShadow_1_2877"/>
<feColorMatrix in="SourceAlpha" type="matrix" values="0 0 0 0 0 0 0 0 0 0 0 0 0 0 0 0 0 0 127 0" result="hardAlpha"/>
<feMorphology radius="9" operator="dilate" in="SourceAlpha" result="effect6_dropShadow_1_2877"/>
<feOffset/>
<feGaussianBlur stdDeviation="9.5"/>
<feComposite in2="hardAlpha" operator="out"/>
<feColorMatrix type="matrix" values="0 0 0 0 0.635294 0 0 0 0 0.176471 0 0 0 0 0.968627 0 0 0 0.1 0"/>
<feBlend mode="normal" in2="effect5_dropShadow_1_2877" result="effect6_dropShadow_1_2877"/>
<feBlend mode="normal" in="SourceGraphic" in2="effect6_dropShadow_1_2877" result="shape"/>
</filter>
<linearGradient id="paint0_linear_1_2877" x1="514.942" y1="394.469" x2="451.379" y2="318.031" gradientUnits="userSpaceOnUse">
<stop stop-color="#896BDF"/>
<stop offset="1" stop-color="#D795FF"/>
</linearGradient>
<linearGradient id="paint1_linear_1_2877" x1="326.095" y1="311.282" x2="336.035" y2="311.282" gradientUnits="userSpaceOnUse">
<stop stop-color="#8C02AF"/>
<stop offset="1" stop-color="#AB21CE"/>
</linearGradient>
<linearGradient id="paint2_linear_1_2877" x1="249.065" y1="365.575" x2="259.004" y2="365.575" gradientUnits="userSpaceOnUse">
<stop stop-color="#4505B3"/>
<stop offset="1" stop-color="#5F35D7"/>
</linearGradient>
<linearGradient id="paint3_linear_1_2877" x1="174.518" y1="419.939" x2="184.458" y2="419.939" gradientUnits="userSpaceOnUse">
<stop stop-color="#B630DD"/>
<stop offset="1" stop-color="#DC70F9"/>
</linearGradient>
<linearGradient id="paint4_linear_1_2877" x1="167.684" y1="385.772" x2="194.396" y2="367.136" gradientUnits="userSpaceOnUse">
<stop stop-color="#121599"/>
<stop offset="1" stop-color="#666666" stop-opacity="0"/>
</linearGradient>
<linearGradient id="paint5_linear_1_2877" x1="252.79" y1="312.47" x2="275.774" y2="296.318" gradientUnits="userSpaceOnUse">
<stop stop-color="#121599"/>
<stop offset="1" stop-color="#666666" stop-opacity="0"/>
</linearGradient>
<linearGradient id="paint6_linear_1_2877" x1="345.993" y1="188.204" x2="326.118" y2="208.058" gradientUnits="userSpaceOnUse">
<stop stop-color="#121599"/>
<stop offset="1" stop-color="#666666" stop-opacity="0"/>
</linearGradient>
</defs>
</svg>
