<svg width="140" height="53" viewBox="0 0 140 53" fill="none" xmlns="http://www.w3.org/2000/svg">
<path d="M0.0725403 15.9561C0.0725403 7.67178 6.78827 0.956055 15.0725 0.956055H124.248C132.532 0.956055 139.248 7.67178 139.248 15.9561V37.8706C139.248 46.1549 132.532 52.8706 124.248 52.8706H15.0725C6.78826 52.8706 0.0725403 46.1549 0.0725403 37.8706V15.9561Z" fill="white"/>
<mask id="mask0_1_1134" style="mask-type:luminance" maskUnits="userSpaceOnUse" x="22" y="17" width="96" height="19">
<path d="M117.016 17.9204H22.2078V35.6181H117.016V17.9204Z" fill="white"/>
</mask>
<g mask="url(#mask0_1_1134)">
<path d="M36.979 29.4762C37.266 29.4762 37.381 29.8055 37.381 30.5197C37.3513 31.0064 37.1933 31.4792 36.9215 31.8925C36.5612 32.4475 36.1156 32.9474 35.5992 33.3747C35.0651 33.8222 34.4647 34.192 33.8181 34.4732C33.2284 34.7539 32.5799 34.9037 31.9213 34.9125C31.0592 34.9125 30.5421 34.1989 30.2546 32.7711C29.8526 33.4303 29.278 33.979 28.5885 34.3633C27.7693 34.8126 26.8301 35.0231 25.887 34.9675C25.3985 34.9795 24.9112 34.9049 24.4504 34.7475C23.9852 34.5649 23.5567 34.3045 23.1863 33.979C22.8658 33.6623 22.6117 33.2894 22.4392 32.8804C22.2748 32.4785 22.1965 32.0493 22.2091 31.6176C22.2091 29.0369 23.1288 27.0048 24.9105 25.5226C25.511 24.9671 26.2391 24.5537 27.0368 24.3141C27.7061 24.1157 28.4045 24.0228 29.1055 24.0398C29.723 24.0297 30.3342 24.1612 30.8872 24.4241C31.1167 23.9848 31.3468 23.7649 31.6343 23.7649C31.9371 23.7598 32.2361 23.8357 32.4965 23.9848C32.7784 24.098 33.0331 24.2661 33.2429 24.4791C33.6645 24.8072 33.9325 25.2806 33.9906 25.797C33.7031 26.4012 33.358 27.0048 33.0135 27.6091C32.8416 28.5881 32.7834 29.583 32.8409 30.5741C32.8409 31.8375 33.0135 32.4962 33.358 32.4962C33.7031 32.4962 34.7946 31.7276 36.3463 30.1348C36.6339 29.6411 36.864 29.4762 36.979 29.4762ZM25.7145 30.849C25.7145 32.0019 26.1746 32.6061 27.0943 32.6061C27.5993 32.5916 28.091 32.4456 28.5158 32.1845C28.9411 31.9235 29.2837 31.5563 29.5075 31.1233C29.723 30.7314 29.9151 30.3282 30.0826 29.9155C30.0618 28.439 30.216 26.9656 30.5421 25.5226C29.2534 25.771 28.0727 26.3835 27.1518 27.2798C26.6828 27.7582 26.3124 28.3176 26.0596 28.9269C25.8289 29.5438 25.7126 30.1942 25.7145 30.849Z" fill="#005893"/>
<path d="M47.6655 28.0093C47.6655 27.5144 47.3786 27.2394 46.7471 27.2394C46.3641 27.2394 45.9046 27.6244 45.3686 28.3942C44.8655 29.1565 44.4964 29.9927 44.2777 30.87V30.925C44.2941 31.4629 44.3706 31.9976 44.5078 32.5203C44.6392 32.8932 44.7163 33.2819 44.7372 33.6751C44.7372 34.17 44.0483 34.6655 42.7273 35.2154C42.544 35.283 42.3499 35.3203 42.1534 35.3254C41.9675 35.3216 41.7874 35.2641 41.6363 35.1604C41.4891 35.0511 41.3873 34.8949 41.3494 34.7205C41.185 34.2035 41.1073 33.6649 41.1193 33.1252C41.1193 32.4653 41.1193 31.8048 41.1768 31.1999C41.2343 30.5944 41.2343 30.0445 41.2919 29.5496C41.3494 29.0547 41.3494 28.6142 41.4069 28.1742C41.4499 27.8645 41.4688 27.5517 41.4644 27.2394C41.4644 26.7439 41.2343 26.469 40.718 26.469C40.2009 26.469 39.6264 27.0195 38.995 28.1193C38.4596 28.915 38.1259 29.8189 38.0191 30.76C38.0102 31.3718 38.0873 31.9824 38.2485 32.5753C38.38 32.9482 38.4577 33.3369 38.4779 33.73C38.4779 34.225 37.789 34.7205 36.4686 35.2704C36.2847 35.338 36.0907 35.3753 35.8941 35.3804C35.7089 35.3766 35.5288 35.319 35.3771 35.2154C35.2304 35.106 35.1287 34.9499 35.0901 34.7755C34.929 34.1826 34.8518 33.572 34.8607 32.9602C34.8133 31.3965 34.9094 29.8321 35.1476 28.2842C35.3891 26.8539 35.9365 25.4867 36.7556 24.2688C36.858 24.0981 36.9945 23.9483 37.1576 23.8288C37.3333 23.7227 37.528 23.6481 37.7315 23.6089C38.2485 23.6089 38.7655 23.9938 39.1675 24.8186C39.2971 25.0038 39.3938 25.2086 39.4545 25.4242C39.7345 24.9988 40.132 24.6556 40.6029 24.4337C41.0631 24.198 41.5738 24.0659 42.0958 24.0488C42.7728 24.0412 43.4282 24.2763 43.9332 24.7087C44.1728 24.9078 44.3681 25.1511 44.5078 25.4242C44.6487 25.6966 44.7081 26.0012 44.6797 26.304V26.5789C45.0678 26.0309 45.6038 25.5936 46.2301 25.3142C46.8597 25.0323 47.5448 24.8825 48.2401 24.8736C48.5883 24.8559 48.9379 24.8932 49.2735 24.9836C49.6085 25.0942 49.9201 25.2617 50.1925 25.4791C50.415 25.6801 50.5907 25.9235 50.7089 26.194C50.8264 26.4734 50.8852 26.773 50.8814 27.0745C50.8814 27.6244 50.8239 28.2292 50.7664 28.7791C50.7089 29.3297 50.537 29.7696 50.4219 30.2095C50.3069 30.65 50.1925 31.0349 50.0775 31.3649C50.0111 31.6354 49.9725 31.9122 49.9624 32.1897C49.9624 32.3547 50.0199 32.4653 50.135 32.4653C50.463 32.409 50.7645 32.2548 50.9958 32.0248C51.3409 31.7498 51.6854 31.4199 52.0299 31.0899L53.0058 30.1545C53.2927 29.8795 53.5228 29.7146 53.6378 29.7146C53.8673 29.7146 53.9823 29.9895 53.9823 30.4844C53.9823 31.5299 53.4078 32.5753 52.3168 33.6201C51.3808 34.5524 50.1059 35.1035 48.7565 35.1604C47.608 35.1604 47.0341 34.17 47.0341 32.1897C47.0448 31.485 47.1409 30.7834 47.3211 30.0995C47.5113 29.4162 47.6263 28.7159 47.6655 28.0093Z" fill="#005893"/>
<path d="M60.5754 32.9292C60.0571 33.6011 59.3644 34.1314 58.5661 34.4682C57.7811 34.8374 56.9158 35.0257 56.0404 35.0175C54.2605 35.0175 52.9977 34.5782 52.0793 33.6984C51.6495 33.2749 51.317 32.7693 51.1034 32.2149C50.8651 31.6581 50.7671 31.0558 50.8164 30.4566C50.7564 28.7374 51.3941 27.063 52.5957 25.785C53.1721 25.1371 53.8996 24.629 54.72 24.3016C55.5385 23.9742 56.4164 23.806 57.3032 23.8067C58.0257 23.8048 58.743 23.916 59.4276 24.1366C60.3459 24.5209 60.8054 24.8508 60.8054 25.1808C60.8054 25.5101 60.174 25.5651 58.8537 25.5651C58.2431 25.5632 57.6388 25.675 57.0738 25.895C56.5018 26.1074 55.9904 26.4461 55.5809 26.8842C55.1346 27.3057 54.7826 27.8108 54.5481 28.3682C54.3465 28.9516 54.287 29.5723 54.3755 30.1816C54.3743 30.8023 54.5974 31.404 55.007 31.885C55.2358 32.1163 55.5088 32.3028 55.8109 32.4349C56.1225 32.5474 56.4537 32.603 56.7868 32.5999C57.4486 32.6239 58.1047 32.4716 58.6811 32.16C58.1312 31.8275 57.6926 31.3509 57.4183 30.7859C57.1104 30.229 56.9708 29.6014 57.0163 28.9725C57.0005 28.2374 57.2893 27.5257 57.8202 26.9941C58.0914 26.7091 58.4245 26.4841 58.7961 26.3349C59.1779 26.1826 59.5881 26.108 60.0015 26.1149C60.3535 26.0821 60.7094 26.1295 61.0387 26.254C61.368 26.3779 61.6619 26.5751 61.8957 26.8292C62.2826 27.3607 62.4836 27.9953 62.4703 28.6425C62.4507 29.4598 62.2548 30.2644 61.8957 31.0058H62.0108C62.342 31.0046 62.6694 30.9407 62.9747 30.8181C63.28 30.6955 63.5574 30.5166 63.7907 30.2916L64.307 29.7967L64.4796 29.6317C64.5365 29.5774 64.594 29.5774 64.709 29.5774C64.9385 29.5774 65.0535 29.8517 65.0535 30.3466C65.0813 30.7385 65.0225 31.1316 64.8809 31.5007C64.7343 31.861 64.4979 32.1814 64.192 32.4349C63.6649 32.8666 62.9917 33.1011 62.2977 33.0941C61.7194 33.091 61.143 33.036 60.5754 32.9292ZM60.4035 30.2916C60.6512 29.7923 60.7878 29.25 60.8054 28.6975C60.8054 28.2033 60.6329 27.9283 60.2884 27.9283C60.2101 27.9391 60.1361 27.97 60.0754 28.0187C60.0147 28.0674 59.9692 28.1312 59.944 28.2033C59.851 28.372 59.8112 28.5629 59.8296 28.7525C59.8308 29.0357 59.889 29.3157 60.0015 29.5774C60.0147 29.7158 60.0577 29.8504 60.1266 29.9737C60.1955 30.0963 60.2897 30.2044 60.4035 30.2916Z" fill="#005893"/>
<path d="M114.581 35.0979C115.059 35.0979 115.526 34.9614 115.924 34.7061C116.322 34.4513 116.632 34.0885 116.815 33.6638C116.998 33.2397 117.045 32.7726 116.952 32.3226C116.859 31.8719 116.628 31.4579 116.291 31.133C115.952 30.8082 115.522 30.5869 115.053 30.4978C114.584 30.4081 114.097 30.4542 113.656 30.6299C113.214 30.8056 112.836 31.1033 112.571 31.4851C112.304 31.8669 112.163 32.3162 112.163 32.7751C112.186 33.3844 112.449 33.9621 112.897 34.3932C113.345 34.8243 113.947 35.0758 114.581 35.0979Z" fill="#C1E9FB"/>
<path d="M90.0016 29.896C90.2886 29.896 90.4036 30.226 90.4036 30.9408C90.3543 31.4338 90.1767 31.9066 89.8866 32.3162C89.5263 32.8724 89.0807 33.3736 88.5643 33.8015C88.0296 34.2497 87.4292 34.6207 86.7819 34.9019C86.2131 35.1826 85.5836 35.333 84.9427 35.3419C84.461 35.3444 83.987 35.2312 83.5629 35.0119C83.2089 34.8021 82.9289 34.4955 82.7583 34.1321C82.4707 33.6366 82.2981 32.6468 82.0687 31.1608C81.9568 30.1438 81.7836 29.1338 81.551 28.1351C81.1446 28.0744 80.7654 27.9025 80.4588 27.6402C80.2996 27.5549 80.1776 27.4184 80.1137 27.2553C80.0486 27.0966 80.0095 26.9298 79.9987 26.7598C79.9747 26.6043 80.0164 26.4463 80.1137 26.3198L80.4588 25.9899C80.8191 25.8325 81.2129 25.7573 81.6086 25.77C82.0086 25.7756 82.4018 25.8698 82.7583 26.0449C83.1969 25.7093 83.5673 25.2984 83.8505 24.8345C84.1538 24.2359 84.2923 23.5729 84.2531 22.9086C84.2562 22.5534 84.1981 22.2007 84.0805 21.8638C83.9377 21.5301 83.7222 21.2299 83.4478 20.9834C82.7475 20.455 81.8652 20.1996 80.9759 20.2679C80.1239 20.2477 79.2725 20.3406 78.447 20.5435C77.9357 20.6933 77.4364 20.8772 76.9522 21.0933C76.5496 21.3133 76.1476 21.4783 75.8025 21.6432C75.5181 21.7924 75.2052 21.886 74.8828 21.9188C74.5953 21.9188 74.4802 21.8088 74.4802 21.6432C74.5504 21.3165 74.709 21.0131 74.9404 20.7634C75.3088 20.309 75.7557 19.9177 76.2626 19.608C77.6746 18.7187 79.311 18.2086 80.9993 18.1309C82.6881 18.0538 84.3681 18.4115 85.8623 19.1681C86.5304 19.5138 87.0866 20.0277 87.4721 20.6534C87.8703 21.2804 88.0517 22.0124 87.9892 22.7437C88.0435 23.9161 87.6554 25.0677 86.8976 25.9899C86.196 26.8419 85.2606 27.4898 84.1956 27.8602C84.4471 28.3898 84.6393 28.9429 84.7701 29.5105C84.9427 30.116 85.0577 30.6109 85.2302 31.1058C85.3421 31.5305 85.5166 31.9382 85.7479 32.3162C85.8256 32.4394 85.9223 32.5507 86.0348 32.6468C86.1499 32.7567 86.2649 32.7567 86.4375 32.8117C86.7965 32.7454 87.1321 32.5937 87.4146 32.3712C87.8191 32.0855 88.1864 31.753 88.5068 31.3814C88.8519 31.0508 89.1964 30.7209 89.484 30.3909C89.6559 30.006 89.8866 29.896 90.0016 29.896ZM79.6542 21.6432C79.8837 21.6432 79.9412 21.9188 79.9412 22.4137C79.9317 22.9105 79.8932 23.4067 79.8268 23.8991C79.7174 24.7397 79.5253 25.569 79.2516 26.3748C78.8781 27.565 78.5899 28.7779 78.3895 30.006V33.3616C78.4306 33.7074 78.3497 34.0556 78.1594 34.3521C77.9717 34.6428 77.7157 34.8874 77.4123 35.0669L76.5496 35.4525C76.2595 35.57 75.9453 35.6263 75.6299 35.6174C74.9404 35.6174 74.6528 34.9019 74.6528 33.4166C74.7267 31.523 75.0952 29.6502 75.745 27.8602C76.2525 26.067 77.0066 24.3472 77.9869 22.7437C78.1695 22.4674 78.4034 22.2247 78.6771 22.0288C78.8041 21.9049 78.9564 21.8063 79.1239 21.7406C79.2921 21.6742 79.4722 21.6413 79.6542 21.6432Z" fill="#C1E9FB"/>
<path d="M110.553 29.9017C110.84 29.9017 110.955 30.2317 110.955 30.9465C110.906 31.4383 110.727 31.911 110.438 32.32C110.078 32.8756 109.632 33.3762 109.116 33.8041C108.581 34.2522 107.982 34.6219 107.335 34.9032C106.684 35.1851 105.98 35.3349 105.266 35.3431C104.951 35.3469 104.639 35.2907 104.347 35.1782C104.056 35.0802 103.798 34.9095 103.6 34.6833C103.194 34.2655 102.968 33.7156 102.968 33.1448C102.975 32.5121 103.071 31.8832 103.255 31.2758C103.485 30.5616 103.657 29.8467 103.887 29.0775C104.381 27.6914 104.689 26.2509 104.806 24.7903C104.796 24.5128 104.758 24.2366 104.691 23.9661C104.646 23.8681 104.564 23.7897 104.461 23.7461C104.353 23.7012 104.235 23.6829 104.117 23.6911C103.508 23.7644 102.952 24.0596 102.565 24.5159C101.983 25.1663 101.465 25.8648 101.014 26.6043C99.9843 28.3563 99.3945 30.3132 99.2903 32.32L99.4047 32.9799C99.4527 33.1966 99.4717 33.4179 99.4622 33.6391C99.4672 33.9121 99.3876 34.1795 99.2327 34.4089C99.1108 34.6453 98.9338 34.8526 98.7157 35.0132C98.2562 35.4032 97.6627 35.6187 97.049 35.6181C96.879 35.6219 96.7146 35.5631 96.5895 35.4531C96.4618 35.3488 96.3638 35.2167 96.3019 35.0682C96.1192 34.6693 96.0213 34.2395 96.0149 33.8041C96.0693 33.1183 96.1843 32.4375 96.3594 31.7707C96.5895 30.8915 96.8764 29.9567 97.164 29.0225C97.9111 26.4393 98.3131 24.5159 98.3131 23.2518C98.3219 22.7304 98.2442 22.2108 98.0837 21.7128C97.999 21.5301 97.8593 21.3771 97.681 21.2729C97.5995 21.2166 97.5053 21.1774 97.4061 21.1584C97.3069 21.1395 97.2045 21.1408 97.1065 21.1629C96.2444 21.1629 95.3829 21.7678 94.5783 22.9219C93.7737 24.076 92.9697 25.89 92.3376 28.3633C92.1651 29.0225 92.0501 29.5724 91.935 30.0117V30.4516C92.1765 31.3523 92.3301 32.2719 92.3952 33.1998C92.4369 33.5531 92.3661 33.9102 92.191 34.2237C92.0172 34.5379 91.7473 34.7939 91.4174 34.9582L90.5552 35.3431C90.2639 35.4556 89.951 35.5112 89.6362 35.5081C88.8316 35.5081 88.4296 34.7932 88.4296 33.3098C88.4296 31.8257 88.8316 29.0225 89.6362 24.7903C89.9232 23.2518 90.0957 22.427 90.0957 22.2077C90.0957 20.9985 89.7513 20.3387 89.1192 20.3387C88.8974 20.3418 88.6799 20.3981 88.4871 20.5036C88.3051 20.6446 88.1136 20.7729 87.9126 20.8886C87.7072 21.0175 87.515 21.1648 87.3381 21.3278C87.1485 21.4403 86.9285 21.4979 86.706 21.4928C86.4759 21.4928 86.3609 21.2729 86.3609 20.8886C86.3596 20.4626 86.4785 20.0448 86.706 19.6794C86.9159 19.3242 87.211 19.0227 87.5675 18.7996C88.3848 18.2333 89.3752 17.9432 90.3833 17.9754C91.8194 17.9754 92.6821 18.6346 92.9122 19.8988C92.9811 20.2988 93.0196 20.7027 93.0272 21.1079C94.1763 19.0196 95.6698 17.9204 97.5085 17.9204C99.4622 17.9204 100.612 18.7996 100.841 20.6136C100.937 21.1578 100.976 21.7102 100.956 22.262V22.427C101.99 21.0529 103.197 20.3937 104.634 20.3937C106.646 20.3937 107.622 21.5478 107.622 23.8561C107.623 25.0462 107.449 26.2301 107.105 27.3735C106.761 28.7476 106.53 29.6824 106.415 30.2866C106.278 30.7335 106.201 31.1955 106.186 31.6607C106.186 32.265 106.415 32.5399 106.818 32.5399C107.22 32.5399 108.254 31.7707 109.863 30.1767C110.077 30.0522 110.309 29.9592 110.553 29.9017Z" fill="#C1E9FB"/>
<path d="M76.5996 26.8392C77.0016 26.8392 77.2317 27.2241 77.2317 27.9396C77.2317 28.7537 77.056 29.559 76.7141 30.3042C76.3228 31.1916 75.7792 32.0095 75.1048 32.7243C74.3495 33.5485 73.4311 34.2217 72.4034 34.7046C71.2183 35.3006 69.8897 35.5857 68.5523 35.5294C67.1093 35.5326 65.7163 35.0231 64.643 34.0997C63.5515 33.1649 62.9763 31.7895 62.9763 29.9742C62.958 28.3113 63.2298 26.6566 63.7809 25.0796C64.2379 23.7099 64.9376 22.4262 65.8503 21.2841C66.6587 20.3429 67.6314 19.5427 68.7242 18.9189C69.6717 18.3481 70.767 18.0435 71.8858 18.0391C73.6107 18.0391 74.4728 18.7539 74.4728 20.2393C74.5265 20.9459 74.3666 21.6519 74.0126 22.2739C73.6682 22.7694 73.3806 23.0443 73.0355 23.0443C72.82 23.0393 72.6069 23.002 72.4034 22.9344C72.198 22.8522 72.0198 22.7195 71.8858 22.5494C71.7524 22.3794 71.5735 22.246 71.3687 22.1639C71.1791 22.0514 70.9592 21.9945 70.7361 21.9989C70.3341 21.9989 69.2419 21.9439 68.3222 23.3743C67.9632 23.8597 67.6914 24.3988 67.5176 24.9696C66.9911 26.3058 66.7181 27.7216 66.7124 29.1494C66.7807 29.6569 66.9532 30.1462 67.2193 30.5899C67.4854 31.0336 67.8412 31.4223 68.2647 31.7345C68.771 32.0632 69.379 32.2187 69.989 32.1744C70.5338 32.1258 71.0635 31.9741 71.5464 31.7288C72.0299 31.483 72.4578 31.1486 72.8054 30.7447L74.3577 29.0944C74.8748 28.5445 75.3349 27.9946 75.7369 27.4991C76.082 27.1142 76.3696 26.8392 76.5996 26.8392Z" fill="#C1E9FB"/>
</g>
</svg>
