<svg width="266" height="136" viewBox="0 0 266 136" fill="none" xmlns="http://www.w3.org/2000/svg">
<rect x="0.134949" y="0.675293" width="265.096" height="135.309" rx="20" fill="#9945FF"/>
<path d="M248.837 52.3411C252.982 56.9364 257.754 77.393 261.354 96.5957C263.606 108.605 254.25 119.485 242.032 119.508L5.74203 119.963C4.57574 119.965 3.6897 118.807 4.16745 117.743C4.2692 117.516 4.32571 117.32 4.3656 117.074C4.6326 115.432 5.53644 113.628 7.9939 109.531C8.85703 108.092 9.88161 106.733 11.2089 105.707C16.8467 101.346 21.7314 102.379 23.6181 103.588C24.1263 103.943 25.3347 104.77 26.9721 105.86C28.4836 106.867 30.2085 107.933 31.9539 107.431C34.2731 106.764 35.8248 104.327 36.4144 102.832C37.0651 101.488 39.0171 96.6333 41.6197 87.9648C43.2761 81.0688 45.7743 81.0515 47.4546 82.4322C48.3145 83.1388 48.4837 83.6088 49.2703 84.3962C51.3216 86.4496 54.8907 88.5015 56.6402 86.1857C58.17 84.161 59.1884 80.955 59.6213 78.8931C61.1395 73.0973 64.6531 60.2457 66.5617 55.2059C68.6399 51.1816 71.3173 51.9239 73.0481 53.3272C73.8642 53.989 74.4071 54.9091 74.9178 55.8274C77.2103 59.9502 81.0026 66.7297 82.3944 69.0654C83.9559 71.6861 85.7923 71.6693 86.5152 71.3333C86.9818 71.0924 88.0059 70.4455 89.1878 69.4299C90.1944 68.5648 91.1694 67.4851 92.4938 67.3977C93.205 67.3508 93.8581 67.5133 94.353 67.7225C94.786 67.9055 95.1395 68.2262 95.4698 68.5607C95.816 68.9114 96.2538 69.3538 96.7213 69.8246C97.6643 70.774 99.1665 71.7145 100.156 70.8132C100.437 70.557 100.78 70.217 100.992 69.901C102.263 68.0008 104.253 61.0422 105.167 57.4738C105.421 56.5318 106.065 54.484 107.025 52.0938C107.883 49.9571 109.742 47.0918 111.501 48.5784C114.391 51.0217 116.221 60.9973 116.879 67.0495C117.747 74.2732 119.525 89.4263 119.699 92.2486C119.898 95.4846 120.827 98.7206 121.649 101.957C121.796 102.539 122.16 103.571 122.556 104.023C123.935 105.595 125.268 102.523 126.348 100.733C127.63 98.6121 129.116 96.956 130.285 95.874C131.135 95.0867 132.157 94.5282 133.196 94.0151C136.014 92.6238 140.175 90.3858 142.038 88.7207C143.425 87.4811 144.883 87.2578 146.019 87.4064C147.182 87.5585 148.099 88.4035 149.151 88.9222C150.027 89.3542 151.176 89.7287 152.449 89.7287C155.572 89.7287 157.943 84.5209 158.738 81.917C159.967 79.0611 162.642 72.7445 163.51 70.3254C164.384 67.8876 165.399 65.7773 167.124 63.3345C168 62.0926 169.034 60.8303 170.497 60.4183C172.475 59.8613 174.046 61.03 175.349 62.4888C176.644 63.9379 178.068 66.0288 179.918 65.4335C180.914 65.113 181.744 64.1443 182.496 62.8872C183.033 61.9892 183.561 61.08 183.984 60.1229C185.743 56.1455 188.187 46.6722 189.319 41.8504C189.898 40.0024 191.705 34.593 194.308 27.7388C197.951 21.0863 202.043 27.9908 203.634 32.2747C207.104 41.7664 214.348 61.3545 215.563 63.7736C217.081 66.7975 217.948 67.0495 220.551 67.0495C222.884 67.2189 226.605 63.0109 228.935 59.8684L228.969 59.8229C229.752 58.7676 230.564 57.671 231.821 57.2936C232.959 56.9518 233.868 58.0231 234.777 58.7894C236.617 60.3417 238.015 59.4976 238.553 58.7338C239.815 57.3229 242.123 54.8958 244.027 53.2715C245.46 52.0493 247.576 50.9426 248.837 52.3411Z" fill="url(#paint0_linear_0_1)"/>
<defs>
<linearGradient id="paint0_linear_0_1" x1="134.339" y1="24.9751" x2="134.339" y2="119.968" gradientUnits="userSpaceOnUse">
<stop stop-color="#EB00FF"/>
<stop offset="1" stop-color="#D3FFFC" stop-opacity="0"/>
</linearGradient>
</defs>
</svg>
