<svg width="166" height="70" viewBox="0 0 166 70" fill="none" xmlns="http://www.w3.org/2000/svg">
<rect x="0.248047" y="0.174805" width="165.195" height="69.5999" rx="15" fill="white"/>
<path d="M108.353 42.62H120.373V39.9658H112.451C113.543 35.6101 120.236 34.6573 120.236 29.8253C120.236 27.2391 118.461 25.3335 114.704 25.3335C112.382 25.3335 110.333 26.0141 108.968 26.6946L109.787 29.1447C111.016 28.5322 112.451 27.9877 114.226 27.9877C115.592 27.9877 116.89 28.6002 116.89 30.1656C116.89 33.7045 109.036 33.9768 108.353 42.62ZM120.714 38.4005H128.432V42.62H131.505V38.4005H134.1V35.8143H131.505V25.3335H129.251L120.714 36.3588V38.4005ZM124.197 35.9504L128.568 30.0975C128.568 30.5739 128.432 32.0712 128.432 33.4323V35.8824H126.383C125.768 35.8824 124.607 35.9504 124.197 35.9504Z" fill="#005893"/>
<path d="M21.0719 40.0351V34.6586H22.3695C23.5305 34.6586 24.4866 34.7947 25.1696 35.2031C25.8525 35.6114 26.2623 36.292 26.2623 37.3809C26.2623 39.2185 25.1696 40.0351 22.5744 40.0351H21.0719ZM17.9304 42.6213H22.5061C27.6282 42.6213 29.4721 40.3754 29.4721 37.2448C29.4721 35.135 28.5843 33.7058 27.0135 32.8891C25.7842 32.2086 24.2135 32.0044 22.3012 32.0044H21.0719V27.921H27.9697L28.7892 25.4028H17.8621V42.6213H17.9304ZM31.5893 42.6213H34.5942L38.487 37.0406C39.2383 36.0198 39.7846 34.9989 40.1261 34.4545H40.1944C40.1261 35.2031 40.0578 36.1559 40.0578 37.1087V42.5533H43.1311V30.303H40.1261L36.2333 35.8837C35.5504 36.9045 34.9357 37.9254 34.5942 38.4698H34.5259C34.5942 37.7212 34.6625 36.7684 34.6625 35.8156V30.371H31.5893V42.6213ZM48.3897 42.6213H51.5313V32.8891H55.2192L56.0387 30.303H44.6335V32.8891H48.3897V42.6213ZM57.1314 48.8145H60.2047V42.6213C60.8193 42.8255 61.434 42.8936 62.1169 42.8936C66.0097 42.8936 68.5366 40.2393 68.5366 36.4281C68.5366 32.4808 66.2146 29.9627 61.7755 29.9627C60.0681 29.9627 58.429 30.303 57.0631 30.7113V48.8145H57.1314ZM60.2047 39.9671V32.753C60.6828 32.6169 61.0925 32.5488 61.6389 32.5488C63.8926 32.5488 65.3268 33.7739 65.3268 36.4281C65.3268 38.8101 64.1658 40.3074 61.8438 40.3074C61.2291 40.3074 60.7511 40.1713 60.2047 39.9671ZM70.3806 42.6213H73.3856L77.2783 37.0406C78.0296 36.0198 78.5759 34.9989 78.9174 34.4545H78.9857C78.9174 35.2031 78.8491 36.1559 78.8491 37.1087V42.5533H81.9224V30.303H78.9174L75.0246 35.8837C74.3417 36.9045 73.727 37.9254 73.3856 38.4698H73.3173C73.3855 37.7212 73.4538 36.7684 73.4538 35.8156V30.371H70.3806V42.6213ZM84.381 42.6213H87.5225V37.517H89.3665C89.7079 37.517 90.0494 37.8573 90.4592 38.674L92.03 42.6213H95.3764L93.1227 37.9254C92.7129 37.1087 92.3031 36.6323 91.6885 36.4281V36.3601C92.7129 35.7475 92.8495 33.9781 93.4641 33.0933C93.669 32.8211 93.9422 32.685 94.352 32.685C94.5569 32.685 94.83 32.685 95.0349 32.8211V30.1668C94.6935 30.0307 94.0788 29.9627 93.7373 29.9627C92.6446 29.9627 91.9617 30.371 91.4836 31.0516C90.4592 32.5488 90.4592 35.135 88.9567 35.135H87.5225V30.303H84.381V42.6213ZM102.342 42.8936C104.05 42.8936 105.621 42.3491 106.577 41.6685L105.689 39.5587C104.801 40.0351 103.982 40.3754 102.821 40.3754C100.703 40.3754 99.3375 39.0143 99.3375 36.4962C99.3375 34.2503 100.703 32.4808 103.025 32.4808C104.255 32.4808 105.143 32.8211 106.03 33.4336V30.7794C105.347 30.371 104.255 29.9627 102.684 29.9627C98.996 29.9627 96.1276 32.685 96.1276 36.5642C96.1276 40.1032 98.3131 42.8936 102.342 42.8936Z" fill="#0BBBEF"/>
<path d="M144.277 38.4008C147.623 38.4008 150.355 35.6785 150.355 32.3437C150.355 29.0089 147.623 26.2866 144.277 26.2866C140.93 26.2866 138.198 29.0089 138.198 32.3437C138.267 35.6785 140.93 38.4008 144.277 38.4008Z" stroke="#005893" stroke-width="1.769"/>
<path d="M148.101 32.3446H144.755V29.0098H143.867V33.2293H148.101V32.3446Z" fill="#005893"/>
</svg>
